<?xml version="1.0" encoding="UTF-8" standalone="no"?>
<!DOCTYPE svg PUBLIC "-//W3C//DTD SVG 1.1//EN" "http://www.w3.org/Graphics/SVG/1.1/DTD/svg11.dtd">
<svg width="100%" height="100%" viewBox="0 0 114 114" version="1.1" xmlns="http://www.w3.org/2000/svg" xmlns:xlink="http://www.w3.org/1999/xlink" xml:space="preserve" xmlns:serif="http://www.serif.com/" style="fill-rule:evenodd;clip-rule:evenodd;stroke-linejoin:round;stroke-miterlimit:2;">
    <g id="Artboard1" transform="matrix(0.384645,0,0,0.405068,145.566,-20.1149)">
        <rect x="-378.443" y="49.658" width="296.377" height="281.434" style="fill:none;"/>
        <clipPath id="_clip1">
            <rect x="-378.443" y="49.658" width="296.377" height="281.434"/>
        </clipPath>
        <g clip-path="url(#_clip1)">
            <g id="Back" transform="matrix(6.27465,0,0,6.68269,-521.979,-105.254)">
                <path d="M70.11,26.55C70.11,24.691 68.416,23.181 66.331,23.181L26.654,23.181C24.569,23.181 22.875,24.691 22.875,26.55L22.875,61.926C22.875,63.785 24.569,65.295 26.654,65.295L66.331,65.295C68.416,65.295 70.11,63.785 70.11,61.926L70.11,26.55Z" style="fill:rgb(81,129,184);"/>
            </g>
            <g id="Man" transform="matrix(2.46841,0,0,1.8759,-983.443,-528.887)">
                <path d="M312.729,328.811L312.729,328.683C313.369,328.058 313.939,327.501 314.36,326.815L311.956,325.168C312.088,322.892 311.74,321.107 310.89,319.807C308.779,318.623 306.372,318.082 303.472,318.356C302.275,319.807 301.075,321.524 300.083,323.52L296.9,324.893C297.463,325.926 298.31,326.615 299.58,327.101L299.58,327.228C299.58,328.618 299.58,330.057 299.731,331.428C299.934,333.011 300.291,334.462 300.987,335.832C301.075,335.832 301.14,335.907 301.209,336.043C301.425,336.321 301.636,336.803 301.56,337.216L301.56,337.347C301.426,337.415 301.35,337.56 301.209,337.632C300.638,338.184 300.215,338.722 300.005,339.479C298.802,339.968 297.746,340.591 296.82,341.075C295.973,341.612 294.975,342.1 293.93,342.581C292.93,343.058 291.946,344.097 291.092,345.818L291.092,345.879C290.671,347.265 290.324,348.845 290.102,350.563C289.967,352.354 289.607,354.013 288.906,355.448C288.409,356.69 287.847,358.135 287.284,359.72C286.703,361.164 286.499,362.746 286.703,364.393C286.577,364.469 286.498,364.608 286.426,364.679C286.365,364.814 286.218,364.956 286.145,365.081C286.078,365.712 285.934,366.53 285.731,367.706C285.514,369.281 285.3,371.013 285.092,373C284.869,374.929 284.814,376.788 284.869,378.573C284.869,380.297 284.869,381.955 284.813,383.545L284.813,383.736C284.939,383.813 285.007,383.87 285.16,383.87C284.663,385.045 284.097,386.286 283.383,387.461C283.247,387.667 283.104,387.868 283.032,388.082C282.326,388.835 282.479,389.59 283.383,390.412C283.383,390.412 283.464,390.412 283.464,390.48C283.464,390.621 283.464,390.766 283.383,390.904L283.383,391.31L281.254,390.476L276.092,390.741L271.296,411.074L285.755,415.629L290.529,415.677L294.281,396.607L287.908,393.379L288.408,390.622C288.549,390.481 288.549,390.352 288.63,390.208L288.685,390.208C288.203,389.868 287.846,389.325 287.631,388.558L287.349,388.698C287.422,388.558 287.485,388.479 287.485,388.349C288.127,387.321 288.337,386.149 288.202,384.777C288.75,384.777 289.262,384.71 289.756,384.572L289.827,384.572C290.099,382.981 290.527,381.472 291.161,379.956C291.735,378.373 292.225,376.789 292.515,375.212C292.643,374.243 292.926,373.347 293.141,372.523C293.351,371.836 293.57,371.148 293.776,370.527L293.852,370.457C293.776,371.147 293.776,371.836 293.702,372.523L293.429,372.523C293.288,373.689 293.141,374.797 293.011,375.756C293.011,375.824 293.011,375.965 293.081,376.106C293.081,376.176 293.081,376.315 293.142,376.377C293.142,376.45 293.142,376.587 293.081,376.655C292.926,378.238 292.793,379.755 292.575,381.267C292.366,382.921 292.224,384.624 292.297,386.424C292.297,387.046 292.366,387.667 292.366,388.148C292.366,388.216 292.366,388.35 292.436,388.35C293.644,389.326 294.83,390.003 296.047,390.413L296.111,390.413C296.111,390.833 296.047,391.106 295.969,391.31L295.969,391.591C295.969,391.931 296.111,392.285 296.392,392.489C296.458,392.619 296.532,392.819 296.458,393.035C296.458,393.313 296.458,393.517 296.532,393.65C296.609,393.72 296.609,393.789 296.609,393.856C296.532,394.137 296.459,394.337 296.392,394.476C296.25,394.683 296.184,394.892 296.184,395.236C296.184,395.57 296.184,395.924 296.111,396.201C296.047,396.754 296.111,397.089 296.393,397.37C296.459,397.432 296.533,397.509 296.61,397.509C296.683,397.642 296.75,397.785 296.897,397.843C296.958,397.981 297.031,397.981 297.108,398.124C297.18,398.187 297.248,398.187 297.387,398.268C297.6,398.48 297.811,398.539 298.035,398.679C298.165,398.679 298.233,398.679 298.233,398.888C298.58,399.16 298.725,399.576 298.517,400.049C298.58,400.665 298.798,401.36 298.951,402.121C299.292,403.492 299.864,404.868 300.424,406.048C301.071,407.28 301.848,408.518 302.757,409.759C303.401,410.724 303.892,411.75 304.236,412.85L304.236,413.064C304.18,414.64 303.825,416.098 303.116,417.267C302.83,417.672 302.757,418.093 302.757,418.436C302.757,418.644 302.757,418.91 302.906,419.047C302.83,419.54 302.757,420.013 302.757,420.639C302.684,422.426 302.626,424.216 302.554,426.069C302.483,427.859 302.412,429.716 302.412,431.505C302.412,433.229 302.412,434.821 302.27,436.332C302.683,436.682 303.181,436.873 303.745,436.945C303.116,437.908 302.757,438.878 302.683,439.979L302.683,440.186C302.553,440.253 302.482,440.387 302.412,440.525C301.699,441.629 301.136,442.794 300.844,443.959C300.795,444.103 300.714,444.251 300.714,444.313C299.93,445.339 299.648,446.375 300.001,447.344C301.071,448.51 302.626,448.845 304.663,448.31C306.579,447.891 307.702,446.864 307.996,445.144C308.342,443.486 308.836,441.968 309.697,440.802C310.463,439.57 310.337,438.456 309.402,437.495C309.343,437.425 309.192,437.354 309.192,437.29L309.966,437.29C310.189,435.572 310.541,433.855 310.885,432.196C310.961,431.641 311.107,431.092 311.252,430.404C312.725,430.48 313.718,429.779 314.356,428.341C314.779,427.17 314.92,425.801 314.779,424.138C314.718,423.737 314.779,423.461 314.984,423.179C316.047,421.797 316.76,420.357 317.104,418.847C317.254,417.881 316.903,417.266 316.047,416.912C316.047,416.845 316.124,416.645 316.188,416.568C315.835,416.44 315.565,416.223 315.346,415.957C314.718,415.06 314.074,414.156 313.436,413.13L313.436,413.063C313.578,411.688 313.794,410.306 314.142,408.936C314.429,407.832 314.646,406.659 314.779,405.493C314.847,404.939 314.984,404.391 314.984,403.836C315.133,402.051 315.422,400.331 315.772,398.679C316.125,396.95 316.412,395.297 316.612,393.65C316.694,392.695 316.76,391.804 316.694,390.904C317.255,390.766 317.829,390.556 318.324,390.283C318.324,388.969 318.463,387.666 318.663,386.492C319.298,386.286 320.017,386.148 320.72,386.086C320.219,384.49 319.943,382.847 319.725,381.266C319.584,379.677 319.458,378.168 319.239,376.718L319.943,376.718C319.943,375.282 319.798,373.898 319.522,372.661L319.522,372.521L319.299,372.521C319.028,370.939 318.954,369.42 319.239,367.907C319.374,367.493 319.374,367.083 319.459,366.67C319.726,367.223 320.22,367.645 320.935,367.907C320.794,368.463 320.721,368.943 320.721,369.492C320.643,371.145 320.935,372.727 321.366,374.175C321.851,375.754 322.217,377.345 322.421,378.916C322.712,380.575 322.845,382.164 322.917,383.87L323.202,383.87C323.126,384.013 323.058,384.094 323.058,384.223C322.985,384.433 322.916,384.572 322.916,384.709C322.774,384.916 322.774,385.117 322.774,385.25C322.711,385.459 322.561,385.598 322.339,385.732C322.271,385.732 322.215,385.732 322.215,385.803C322.215,385.944 322.06,386.013 321.989,386.086C321.849,386.22 321.849,386.349 321.849,386.492C321.787,386.632 321.787,386.778 321.787,386.978C321.71,387.179 321.71,387.394 321.647,387.533C321.647,387.603 321.569,387.666 321.647,387.796C321.647,387.867 321.647,387.937 321.71,388.014C321.71,388.014 321.787,388.081 321.849,388.146C321.787,388.146 321.71,388.146 321.71,388.214C321.569,388.557 321.492,388.835 321.492,389.247C321.569,389.38 321.647,389.589 321.647,389.722C321.71,389.938 321.848,390.076 321.988,390.35C322.214,390.62 322.418,390.765 322.842,390.765C323.056,390.765 323.123,390.62 323.123,390.479C323.199,390.411 323.259,390.411 323.259,390.35L323.259,390.282C323.4,390.62 323.479,390.903 323.617,391.17C323.617,391.233 323.617,391.233 323.695,391.233C323.833,391.309 323.974,391.381 323.974,391.59L324.112,391.59C324.477,391.59 324.683,391.381 324.81,391.038L324.906,390.964C325.318,391.105 325.74,391.038 325.955,390.766C326.024,390.766 326.089,390.621 326.089,390.621C326.164,390.556 326.164,390.556 326.238,390.556C326.164,390.351 326.238,390.208 326.446,390.15L326.446,390.078C326.73,389.94 327.015,389.868 327.295,389.724C327.295,389.667 327.366,389.591 327.366,389.591C327.435,389.538 327.512,389.538 327.512,389.452C327.575,389.381 327.653,389.381 327.653,389.248C327.722,389.248 327.722,389.175 327.722,389.108C328.071,388.558 328.422,388.147 328.641,387.733C328.706,387.666 328.706,387.666 328.706,387.603L328.706,387.32C328.706,387.044 328.641,386.778 328.641,386.491L328.641,386.422C328.569,386.285 328.569,386.147 328.569,386.085C328.501,385.731 328.358,385.459 328.222,385.249C328.071,385.187 328.071,385.116 328.004,385.044C328.004,384.915 327.94,384.708 327.862,384.57C327.79,384.57 327.721,384.431 327.721,384.354C327.721,384.221 327.652,384.092 327.511,383.868C327.511,383.868 327.511,383.734 327.434,383.676L327.434,383.596C327.939,383.543 328.421,383.456 329.065,383.399C329.065,381.674 329.065,380.017 328.856,378.443C328.706,377.482 328.64,376.445 328.568,375.403C328.357,373.685 328.07,372.036 327.721,370.453C327.511,369.49 327.365,368.523 327.293,367.419L327.293,366.326C327.293,365.287 327.293,364.261 327.364,363.237L327.364,363.022C326.938,361.641 326.308,360.334 325.523,359.302L325.523,359.028C325.523,357.246 325.459,355.511 325.391,353.798C325.242,352.012 324.963,350.366 324.475,348.899C323.972,347.608 323.476,346.44 322.912,345.473C322.912,345.322 322.84,345.264 322.77,345.192L322.77,344.711C322.63,343.895 322.416,343.27 322.211,342.714L322.056,342.714C321.361,342.432 320.576,342.17 319.721,341.959C318.029,341.479 316.54,340.922 315.13,340.318C314.981,340.242 314.917,340.165 314.776,340.093C313.575,339.555 312.305,338.719 311.172,337.828C311.032,337.214 310.751,336.8 310.187,336.592C310.334,335.283 310.46,333.904 310.54,332.532L310.54,332.463C311.95,332.249 312.661,331.225 312.724,329.361C312.729,329.232 312.729,329.029 312.729,328.811ZM286.779,392.695L285.008,391.998L285.092,391.931L285.3,391.233C285.645,391.447 286.001,391.59 286.218,391.447C286.498,391.72 286.779,391.858 287.135,391.93L286.779,392.695Z" style="fill:white;"/>
            </g>
        </g>
    </g>
</svg>
