<?xml version="1.0" encoding="UTF-8" standalone="no"?>
<!DOCTYPE svg PUBLIC "-//W3C//DTD SVG 1.1//EN" "http://www.w3.org/Graphics/SVG/1.1/DTD/svg11.dtd">
<svg width="100%" height="100%" viewBox="0 0 24 24" version="1.1" xmlns="http://www.w3.org/2000/svg" xmlns:xlink="http://www.w3.org/1999/xlink" xml:space="preserve" xmlns:serif="http://www.serif.com/" style="fill-rule:evenodd;clip-rule:evenodd;stroke-linejoin:round;stroke-miterlimit:2;">
    <g transform="matrix(2,0,0,1.5,-8,-7.5)">
        <path d="M16,6.92C16,5.86 15.355,5 14.56,5L5.44,5C4.645,5 4,5.86 4,6.92L4,19.08C4,20.14 4.645,21 5.44,21L14.56,21C15.355,21 16,20.14 16,19.08L16,6.92Z" style="fill:rgb(23,24,32);"/>
    </g>
    <path d="M11,9.47L11,11L14.76,11L13,14.53L13,13L9.24,13L11,9.47M13,1L6,15L11,15L11,23L18,9L13,9L13,1Z" style="fill:rgb(217,72,15);fill-rule:nonzero;"/>
</svg>
