<?xml version="1.0" encoding="UTF-8" standalone="no"?>
<!DOCTYPE svg PUBLIC "-//W3C//DTD SVG 1.1//EN" "http://www.w3.org/Graphics/SVG/1.1/DTD/svg11.dtd">
<svg width="100%" height="100%" viewBox="0 0 100 100" version="1.1" xmlns="http://www.w3.org/2000/svg" xmlns:xlink="http://www.w3.org/1999/xlink" xml:space="preserve" xmlns:serif="http://www.serif.com/" style="fill-rule:evenodd;clip-rule:evenodd;stroke-linejoin:round;stroke-miterlimit:2;">
    <g id="Rutube" transform="matrix(0.171607,0,0,0.171607,6.48647,3.95038)">
        <path d="M419.52,77.652C437.373,77.652 451.868,92.147 451.868,110C451.868,127.853 437.373,142.348 419.52,142.348C401.667,142.348 387.172,127.853 387.172,110C387.172,92.147 401.667,77.652 419.52,77.652ZM323.396,138.772C337.415,138.772 348.782,140.287 357.876,142.94C366.97,145.971 374.548,150.518 381.368,156.959C387.809,163.779 392.356,171.358 395.009,180.072C397.661,188.787 399.177,200.154 399.177,214.552L399.177,233.498C399.177,257.747 395.009,275.935 386.673,287.302C378.337,298.669 364.696,305.868 345.751,308.899L406.755,391.5L335.9,391.5L280.58,309.278L159.331,309.278L159.331,391.5L96.054,391.5L96.054,138.772L323.396,138.772ZM313.166,253.579C321.88,253.579 327.943,252.443 330.974,249.79C334.005,247.138 335.9,242.212 335.9,234.634L335.9,213.416C335.9,206.217 334.005,201.291 330.974,198.639C327.943,195.986 321.88,194.471 313.166,194.471L159.331,194.471L159.331,253.579L313.166,253.579Z"/>
    </g>
</svg>
